<?xml version="1.0" encoding="UTF-8"?>
<svg xmlns="http://www.w3.org/2000/svg" width="480" height="120" viewBox="0 0 480 120" role="img" aria-label="Deep work debt">
  <style>
    @keyframes dw-draw { from { stroke-dashoffset: 400 } to { stroke-dashoffset: 0 } }
    @keyframes dw-fade { from { opacity: 0 } to { opacity: 1 } }
    .dw-line { stroke-dasharray: 400; animation: dw-draw 1.1s ease forwards }
    .dw-fade { opacity: 0; animation: dw-fade .6s ease .3s forwards }
  </style>

  <!-- transparent background (like metrics plugins) -->

  <!-- header -->
  <svg x="16" y="14" width="16" height="16" viewBox="0 0 16 16" fill="#0366d6">
    <path fill-rule="evenodd" d="M1.5 8a6.5 6.5 0 1113 0 6.5 6.5 0 01-13 0zM8 0a8 8 0 100 16A8 8 0 008 0zm.5 4.75a.75.75 0 00-1.5 0v3.5a.75.75 0 00.471.696l2.5 1a.75.75 0 00.557-1.392L8.5 7.742V4.75z"/>
  </svg>
  <text x="40" y="27" fill="#0366d6" font-size="16" font-weight="400" font-family="-apple-system,BlinkMacSystemFont,Segoe UI,Helvetica,Arial,sans-serif">Deep work debt</text>
  <text x="464" y="27" text-anchor="end" fill="#777777" font-size="12" font-family="ui-monospace,SFMono-Regular,Menlo,Consolas,monospace">7d</text>

  <!-- metric -->
  <text x="16" y="58" fill="#777777" font-size="11" letter-spacing="1.2" font-family="ui-monospace,SFMono-Regular,Menlo,Consolas,monospace">DEBT</text>
  <text x="16" y="84" fill="#30a14e" font-size="28" font-weight="600" font-family="ui-monospace,SFMono-Regular,Menlo,Consolas,monospace">13h 23m</text>
  <text x="16" y="104" fill="#777777" font-size="12" font-family="ui-monospace,SFMono-Regular,Menlo,Consolas,monospace">26h 37m/40h · 67%</text>

  <!-- progress -->
  <rect x="16" y="112" width="168" height="2" rx="1" fill="#ebedf0"/>
  <rect x="16" y="112" width="112" height="2" rx="1" fill="#30a14e" class="dw-fade"/>

  <!-- sparkline -->
  <line x1="208" y1="50.6" x2="456.0" y2="50.6" stroke="#ebedf0" stroke-width="1" stroke-dasharray="3 3"/>
  <polygon points="208,90.0 208.0,45.3 249.3,45.3 290.7,90.0 332.0,86.5 373.3,42.0 414.7,47.4 456.0,90.0 456.0,90.0" fill="#30a14e" opacity="0.12" class="dw-fade"/>
  <polyline points="208.0,45.3 249.3,45.3 290.7,90.0 332.0,86.5 373.3,42.0 414.7,47.4 456.0,90.0" fill="none" stroke="#30a14e" stroke-width="2" stroke-linecap="round" stroke-linejoin="round" class="dw-line"/>
  <g class="dw-fade"><circle cx="208.0" cy="45.3" r="2.75" fill="#216e39" stroke="#ffffff" stroke-width="0.75"/><circle cx="249.3" cy="45.3" r="2.75" fill="#216e39" stroke="#ffffff" stroke-width="0.75"/><circle cx="290.7" cy="90.0" r="2.75" fill="#ebedf0" stroke="#ffffff" stroke-width="0.75"/><circle cx="332.0" cy="86.5" r="2.75" fill="#9be9a8" stroke="#ffffff" stroke-width="0.75"/><circle cx="373.3" cy="42.0" r="2.75" fill="#216e39" stroke="#ffffff" stroke-width="0.75"/><circle cx="414.7" cy="47.4" r="2.75" fill="#216e39" stroke="#ffffff" stroke-width="0.75"/><circle cx="456.0" cy="90.0" r="2.75" fill="#ebedf0" stroke="#ffffff" stroke-width="0.75"/></g>
  <text x="208.0" y="104" text-anchor="middle" fill="#777777" font-size="10" font-family="ui-monospace,SFMono-Regular,Menlo,Consolas,monospace">T</text><text x="249.3" y="104" text-anchor="middle" fill="#777777" font-size="10" font-family="ui-monospace,SFMono-Regular,Menlo,Consolas,monospace">F</text><text x="290.7" y="104" text-anchor="middle" fill="#777777" font-size="10" font-family="ui-monospace,SFMono-Regular,Menlo,Consolas,monospace">S</text><text x="332.0" y="104" text-anchor="middle" fill="#777777" font-size="10" font-family="ui-monospace,SFMono-Regular,Menlo,Consolas,monospace">S</text><text x="373.3" y="104" text-anchor="middle" fill="#777777" font-size="10" font-family="ui-monospace,SFMono-Regular,Menlo,Consolas,monospace">M</text><text x="414.7" y="104" text-anchor="middle" fill="#777777" font-size="10" font-family="ui-monospace,SFMono-Regular,Menlo,Consolas,monospace">T</text><text x="456.0" y="104" text-anchor="middle" fill="#777777" font-size="10" font-family="ui-monospace,SFMono-Regular,Menlo,Consolas,monospace">W</text>
</svg>
