<?xml version="1.0" encoding="UTF-8"?>
<svg xmlns="http://www.w3.org/2000/svg" width="420" height="168" viewBox="0 0 420 168" role="img" aria-label="Deep work debt">
  <rect width="100%" height="100%" fill="#0d1117" rx="8"/>
  <text x="20" y="28" fill="#8b949e" font-size="11" font-family="ui-monospace, SFMono-Regular, Menlo, Consolas, monospace">deep work debt · 7d</text>
  <text x="20" y="52" fill="#f85149" font-size="18" font-family="ui-monospace, SFMono-Regular, Menlo, Consolas, monospace" font-weight="600">debt 20h 15m remaining</text>
  <text x="400" y="28" text-anchor="end" fill="#6e7681" font-size="11" font-family="ui-monospace, SFMono-Regular, Menlo, Consolas, monospace">19h 45m / 40h</text>
  <rect x="20" y="58" width="280" height="4" rx="2" fill="#21262d"/>
  <rect x="20" y="58" width="138" height="4" rx="2" fill="#58a6ff"/>
  
      <rect x="28.0" y="72.0" width="45.1" height="64.0" rx="3" fill="#58a6ff" opacity="0.85"/>
      <text x="50.6" y="150" text-anchor="middle" fill="#8b949e" font-size="10" font-family="ui-monospace, SFMono-Regular, Menlo, Consolas, monospace">Fri</text>
      <rect x="81.1" y="119.5" width="45.1" height="16.5" rx="3" fill="#58a6ff" opacity="0.85"/>
      <text x="103.7" y="150" text-anchor="middle" fill="#8b949e" font-size="10" font-family="ui-monospace, SFMono-Regular, Menlo, Consolas, monospace">Sat</text>
      <rect x="134.3" y="134.0" width="45.1" height="2.0" rx="3" fill="#58a6ff" opacity="0.85"/>
      <text x="156.9" y="150" text-anchor="middle" fill="#8b949e" font-size="10" font-family="ui-monospace, SFMono-Regular, Menlo, Consolas, monospace">Sun</text>
      <rect x="187.4" y="74.5" width="45.1" height="61.5" rx="3" fill="#58a6ff" opacity="0.85"/>
      <text x="210.0" y="150" text-anchor="middle" fill="#8b949e" font-size="10" font-family="ui-monospace, SFMono-Regular, Menlo, Consolas, monospace">Mon</text>
      <rect x="240.6" y="134.0" width="45.1" height="2.0" rx="3" fill="#58a6ff" opacity="0.85"/>
      <text x="263.1" y="150" text-anchor="middle" fill="#8b949e" font-size="10" font-family="ui-monospace, SFMono-Regular, Menlo, Consolas, monospace">Tue</text>
      <rect x="293.7" y="91.5" width="45.1" height="44.5" rx="3" fill="#58a6ff" opacity="0.85"/>
      <text x="316.3" y="150" text-anchor="middle" fill="#8b949e" font-size="10" font-family="ui-monospace, SFMono-Regular, Menlo, Consolas, monospace">Wed</text>
      <rect x="346.9" y="119.2" width="45.1" height="16.8" rx="3" fill="#58a6ff" opacity="0.85"/>
      <text x="369.4" y="150" text-anchor="middle" fill="#8b949e" font-size="10" font-family="ui-monospace, SFMono-Regular, Menlo, Consolas, monospace">Thu</text>
  <text x="20" y="160" fill="#6e7681" font-size="10" font-family="ui-monospace, SFMono-Regular, Menlo, Consolas, monospace">goal − coded · auto · wakatime</text>
</svg>
